<svg width="21" height="20" viewBox="0 0 21 20" fill="none" xmlns="http://www.w3.org/2000/svg">
<g clip-path="url(#clip0_75_26012)">
<path d="M11.7498 12.3189C12.7296 11.7087 13.4839 10.796 13.8988 9.71885C14.3136 8.64171 14.3663 7.45877 14.049 6.34899C13.7316 5.23921 13.0615 4.26298 12.1399 3.56799C11.2183 2.873 10.0955 2.49707 8.9412 2.49707C7.78694 2.49707 6.66409 2.873 5.74251 3.56799C4.82093 4.26298 4.15077 5.23921 3.83343 6.34899C3.51609 7.45877 3.56882 8.64171 3.98365 9.71885C4.39849 10.796 5.15285 11.7087 6.13261 12.3189C4.51933 12.8471 3.06777 13.8338 1.90058 15.2229C1.79387 15.3498 1.74195 15.5139 1.75623 15.6791C1.77052 15.8442 1.84984 15.997 1.97675 16.1037C2.10366 16.2104 2.26776 16.2623 2.43296 16.2481C2.59815 16.2338 2.7509 16.1544 2.85761 16.0275C4.42558 14.1557 6.58652 13.1252 8.9373 13.1252C11.2881 13.1252 13.449 14.1557 15.0209 16.0275C15.1276 16.1544 15.2804 16.2338 15.4455 16.2481C15.6107 16.2623 15.7748 16.2104 15.9018 16.1037C16.0287 15.997 16.108 15.8442 16.1223 15.6791C16.1366 15.5139 16.0846 15.3498 15.9779 15.2229C14.8107 13.8338 13.3592 12.8471 11.7498 12.3189ZM4.8748 7.81269C4.8748 7.00921 5.11306 6.22377 5.55945 5.55569C6.00585 4.88762 6.64032 4.36691 7.38265 4.05943C8.12497 3.75195 8.9418 3.6715 9.72985 3.82825C10.5179 3.98501 11.2418 4.37192 11.8099 4.94007C12.3781 5.50822 12.765 6.23209 12.9217 7.02014C13.0785 7.80819 12.998 8.62502 12.6906 9.36735C12.3831 10.1097 11.8624 10.7441 11.1943 11.1905C10.5262 11.6369 9.74078 11.8752 8.9373 11.8752C7.86024 11.874 6.82764 11.4455 6.06605 10.6839C5.30445 9.92235 4.87604 8.88976 4.8748 7.81269ZM20.317 10.4424L17.817 12.9424C17.7589 13.0005 17.69 13.0466 17.6141 13.078C17.5383 13.1095 17.4569 13.1257 17.3748 13.1257C17.2927 13.1257 17.2113 13.1095 17.1355 13.078C17.0596 13.0466 16.9907 13.0005 16.9326 12.9424L15.6826 11.6924C15.5653 11.5751 15.4994 11.416 15.4994 11.2502C15.4994 11.0843 15.5653 10.9253 15.6826 10.808C15.7999 10.6907 15.9589 10.6248 16.1248 10.6248C16.2906 10.6248 16.4497 10.6907 16.567 10.808L17.3748 11.6166L19.4326 9.55801C19.5499 9.44073 19.7089 9.37485 19.8748 9.37485C20.0406 9.37485 20.1997 9.44073 20.317 9.55801C20.4343 9.67528 20.5001 9.83434 20.5001 10.0002C20.5001 10.166 20.4343 10.3251 20.317 10.4424Z" fill="white"/>
</g>
<defs>
<clipPath id="clip0_75_26012">
<rect width="20" height="20" fill="white" transform="translate(0.5)"/>
</clipPath>
</defs>
</svg>
