<svg width="20" height="20" viewBox="0 0 20 20" fill="none" xmlns="http://www.w3.org/2000/svg">
<path d="M11.2498 12.3189C12.2296 11.7087 12.9839 10.796 13.3988 9.71885C13.8136 8.64171 13.8663 7.45877 13.549 6.34899C13.2316 5.23921 12.5615 4.26298 11.6399 3.56799C10.7183 2.873 9.59546 2.49707 8.4412 2.49707C7.28694 2.49707 6.16409 2.873 5.24251 3.56799C4.32093 4.26298 3.65077 5.23921 3.33343 6.34899C3.01608 7.45877 3.06882 8.64171 3.48365 9.71885C3.89849 10.796 4.65285 11.7087 5.63261 12.3189C4.01933 12.8471 2.56777 13.8338 1.40058 15.2228C1.29387 15.3498 1.24195 15.5139 1.25623 15.6791C1.27052 15.8442 1.34984 15.997 1.47675 16.1037C1.60366 16.2104 1.76776 16.2623 1.93296 16.2481C2.09815 16.2338 2.2509 16.1544 2.35761 16.0275C3.92558 14.1557 6.08652 13.1252 8.4373 13.1252C10.7881 13.1252 12.949 14.1557 14.5209 16.0275C14.6276 16.1544 14.7804 16.2338 14.9455 16.2481C15.1107 16.2623 15.2748 16.2104 15.4017 16.1037C15.5287 15.997 15.608 15.8442 15.6223 15.6791C15.6366 15.5139 15.5846 15.3498 15.4779 15.2228C14.3107 13.8338 12.8592 12.8471 11.2498 12.3189ZM4.3748 7.81269C4.3748 7.00921 4.61306 6.22376 5.05945 5.55569C5.50584 4.88762 6.14032 4.36691 6.88265 4.05943C7.62497 3.75195 8.4418 3.6715 9.22985 3.82825C10.0179 3.98501 10.7418 4.37192 11.3099 4.94007C11.8781 5.50822 12.265 6.23209 12.4217 7.02014C12.5785 7.80819 12.498 8.62502 12.1906 9.36734C11.8831 10.1097 11.3624 10.7441 10.6943 11.1905C10.0262 11.6369 9.24078 11.8752 8.4373 11.8752C7.36024 11.874 6.32764 11.4455 5.56605 10.6839C4.80445 9.92235 4.37604 8.88975 4.3748 7.81269ZM15.1826 11.6924C13.1912 9.70099 19.0317 15.5415 15.1826 11.6924V11.6924Z" fill="#022490"/>
<path d="M14.4443 11.1113H18.8888" stroke="#022490" stroke-linecap="round"/>
<path d="M16.667 8.88867L16.667 13.3331" stroke="#022490" stroke-linecap="round"/>
</svg>
