<svg width="21" height="20" viewBox="0 0 21 20" fill="none" xmlns="http://www.w3.org/2000/svg">
<path d="M11.7498 12.3189C12.7296 11.7087 13.4839 10.796 13.8988 9.71885C14.3136 8.64171 14.3663 7.45877 14.049 6.34899C13.7316 5.23921 13.0615 4.26298 12.1399 3.56799C11.2183 2.873 10.0955 2.49707 8.9412 2.49707C7.78694 2.49707 6.66409 2.873 5.74251 3.56799C4.82093 4.26298 4.15077 5.23921 3.83343 6.34899C3.51608 7.45877 3.56882 8.64171 3.98365 9.71885C4.39849 10.796 5.15285 11.7087 6.13261 12.3189C4.51933 12.8471 3.06777 13.8338 1.90058 15.2228C1.79387 15.3498 1.74195 15.5139 1.75623 15.6791C1.77052 15.8442 1.84984 15.997 1.97675 16.1037C2.10366 16.2104 2.26776 16.2623 2.43296 16.2481C2.59815 16.2338 2.7509 16.1544 2.85761 16.0275C4.42558 14.1557 6.58652 13.1252 8.9373 13.1252C11.2881 13.1252 13.449 14.1557 15.0209 16.0275C15.1276 16.1544 15.2804 16.2338 15.4455 16.2481C15.6107 16.2623 15.7748 16.2104 15.9017 16.1037C16.0287 15.997 16.108 15.8442 16.1223 15.6791C16.1366 15.5139 16.0846 15.3498 15.9779 15.2228C14.8107 13.8338 13.3592 12.8471 11.7498 12.3189ZM4.8748 7.81269C4.8748 7.00921 5.11306 6.22376 5.55945 5.55569C6.00584 4.88762 6.64032 4.36691 7.38265 4.05943C8.12497 3.75195 8.9418 3.6715 9.72985 3.82825C10.5179 3.98501 11.2418 4.37192 11.8099 4.94007C12.3781 5.50822 12.765 6.23209 12.9217 7.02014C13.0785 7.80819 12.998 8.62502 12.6906 9.36734C12.3831 10.1097 11.8624 10.7441 11.1943 11.1905C10.5262 11.6369 9.74078 11.8752 8.9373 11.8752C7.86024 11.874 6.82764 11.4455 6.06605 10.6839C5.30445 9.92235 4.87604 8.88975 4.8748 7.81269ZM15.6826 11.6924C13.6912 9.70099 19.5317 15.5415 15.6826 11.6924V11.6924Z" fill="white"/>
<path d="M14.9443 11.1113H19.3888" stroke="white" stroke-linecap="round"/>
<path d="M17.167 8.88867L17.167 13.3331" stroke="white" stroke-linecap="round"/>
</svg>
