<svg width="19" height="18" viewBox="0 0 19 18" fill="none" xmlns="http://www.w3.org/2000/svg">
<path d="M15.867 5.5302L11.6344 1.13804C11.5495 1.04976 11.4342 1.00011 11.314 1H4.05814C3.7775 1 3.50836 1.11569 3.30992 1.32161C3.11148 1.52753 3 1.80682 3 2.09804V15.902C3 16.1932 3.11148 16.4725 3.30992 16.6784C3.50836 16.8843 3.7775 17 4.05814 17H14.9419C15.2225 17 15.4916 16.8843 15.6901 16.6784C15.8885 16.4725 16 16.1932 16 15.902V5.86275C15.9999 5.73798 15.952 5.61836 15.867 5.5302ZM11.7674 2.60627L14.4521 5.39216H11.7674V2.60627ZM14.9419 16.0588H4.05814C4.01805 16.0588 3.9796 16.0423 3.95125 16.0129C3.9229 15.9835 3.90698 15.9436 3.90698 15.902V2.09804C3.90698 2.05644 3.9229 2.01654 3.95125 1.98712C3.9796 1.9577 4.01805 1.94118 4.05814 1.94118H10.8605V5.86275C10.8605 5.98755 10.9082 6.10725 10.9933 6.1955C11.0783 6.28375 11.1937 6.33333 11.314 6.33333H15.093V15.902C15.093 15.9436 15.0771 15.9835 15.0487 16.0129C15.0204 16.0423 14.982 16.0588 14.9419 16.0588ZM11.6344 11.1773C11.7193 11.2655 11.767 11.3851 11.767 11.5098C11.767 11.6345 11.7193 11.7541 11.6344 11.8424L9.82047 13.7247C9.73544 13.8128 9.62017 13.8623 9.5 13.8623C9.37983 13.8623 9.26456 13.8128 9.17953 13.7247L7.36558 11.8424C7.28548 11.7531 7.24187 11.6352 7.24394 11.5132C7.24601 11.3913 7.29361 11.275 7.37669 11.1888C7.45978 11.1026 7.57187 11.0532 7.68936 11.051C7.80684 11.0489 7.92055 11.0941 8.00651 11.1773L9.04651 12.2557V8.37255C9.04651 8.24774 9.09429 8.12805 9.17934 8.03979C9.26438 7.95154 9.37973 7.90196 9.5 7.90196C9.62027 7.90196 9.73562 7.95154 9.82066 8.03979C9.90571 8.12805 9.95349 8.24774 9.95349 8.37255V12.2557L10.9935 11.1773C11.0785 11.0891 11.1938 11.0396 11.314 11.0396C11.4341 11.0396 11.5494 11.0891 11.6344 11.1773Z" fill="#374151"/>
</svg>
