<svg width="19" height="18" viewBox="0 0 19 18" fill="none" xmlns="http://www.w3.org/2000/svg">
<path d="M12.148 14.227C12.2002 14.2793 12.2417 14.3413 12.27 14.4096C12.2983 14.4779 12.3128 14.5511 12.3128 14.625C12.3128 14.6989 12.2983 14.7721 12.27 14.8404C12.2417 14.9087 12.2002 14.9707 12.148 15.023C12.0957 15.0752 12.0337 15.1167 11.9654 15.145C11.8971 15.1733 11.8239 15.1878 11.75 15.1878C11.6761 15.1878 11.6029 15.1733 11.5346 15.145C11.4663 15.1167 11.4043 15.0752 11.352 15.023L5.72703 9.39798C5.67473 9.34574 5.63324 9.2837 5.60494 9.21541C5.57663 9.14713 5.56206 9.07393 5.56206 9.00001C5.56206 8.92609 5.57663 8.85289 5.60494 8.7846C5.63324 8.71632 5.67473 8.65428 5.72703 8.60204L11.352 2.97704C11.4576 2.87149 11.6007 2.81219 11.75 2.81219C11.8993 2.81219 12.0424 2.87149 12.148 2.97704C12.2535 3.08259 12.3128 3.22574 12.3128 3.37501C12.3128 3.52427 12.2535 3.66743 12.148 3.77298L6.92023 9.00001L12.148 14.227Z" fill="white"/>
</svg>
