<svg width="128" height="21" viewBox="0 0 128 21" fill="none" xmlns="http://www.w3.org/2000/svg">
<path d="M16.248 13.892C16.08 15.964 15.3053 17.6347 13.924 18.904C12.5613 20.1547 10.6853 20.78 8.296 20.78C6.63467 20.78 5.188 20.388 3.956 19.604C2.724 18.82 1.772 17.7093 1.1 16.272C0.446667 14.8347 0.12 13.1453 0.12 11.204V9.664C0.12 7.72267 0.456 6.03333 1.128 4.596C1.8 3.15867 2.76133 2.048 4.012 1.264C5.26267 0.479999 6.728 0.0879991 8.408 0.0879991C10.7787 0.0879991 12.6267 0.722666 13.952 1.992C15.2773 3.26133 16.052 4.96 16.276 7.088H12.58C12.4493 5.744 12.0667 4.74533 11.432 4.092C10.7973 3.42 9.78933 3.084 8.408 3.084C6.896 3.084 5.75733 3.644 4.992 4.764C4.22667 5.86533 3.844 7.48933 3.844 9.636V11.204C3.844 15.5907 5.328 17.784 8.296 17.784C9.696 17.784 10.7133 17.4667 11.348 16.832C12.0013 16.1973 12.4027 15.2173 12.552 13.892H16.248ZM17.8589 12.884C17.8589 11.428 18.1389 10.1213 18.6989 8.964C19.2589 7.80667 20.0615 6.90133 21.1069 6.248C22.1709 5.576 23.4215 5.24 24.8589 5.24C26.2962 5.24 27.5375 5.576 28.5829 6.248C29.6469 6.90133 30.4589 7.80667 31.0189 8.964C31.5789 10.1213 31.8589 11.428 31.8589 12.884V13.164C31.8589 14.62 31.5789 15.9267 31.0189 17.084C30.4589 18.2413 29.6562 19.1467 28.6109 19.8C27.5655 20.4533 26.3242 20.78 24.8869 20.78C23.4309 20.78 22.1709 20.4533 21.1069 19.8C20.0615 19.1467 19.2589 18.2413 18.6989 17.084C18.1389 15.9267 17.8589 14.62 17.8589 13.164V12.884ZM21.4149 13.164C21.4149 14.564 21.6949 15.712 22.2549 16.608C22.8335 17.4853 23.7109 17.924 24.8869 17.924C26.0255 17.924 26.8749 17.4853 27.4349 16.608C28.0135 15.712 28.3029 14.564 28.3029 13.164V12.884C28.3029 11.5027 28.0135 10.364 27.4349 9.468C26.8749 8.572 26.0162 8.124 24.8589 8.124C23.7015 8.124 22.8335 8.572 22.2549 9.468C21.6949 10.364 21.4149 11.5027 21.4149 12.884V13.164ZM33.4722 12.884C33.4722 11.428 33.7522 10.1213 34.3122 8.964C34.8722 7.80667 35.6748 6.90133 36.7202 6.248C37.7842 5.576 39.0348 5.24 40.4722 5.24C41.9095 5.24 43.1508 5.576 44.1962 6.248C45.2602 6.90133 46.0722 7.80667 46.6322 8.964C47.1922 10.1213 47.4722 11.428 47.4722 12.884V13.164C47.4722 14.62 47.1922 15.9267 46.6322 17.084C46.0722 18.2413 45.2695 19.1467 44.2242 19.8C43.1788 20.4533 41.9375 20.78 40.5002 20.78C39.0442 20.78 37.7842 20.4533 36.7202 19.8C35.6748 19.1467 34.8722 18.2413 34.3122 17.084C33.7522 15.9267 33.4722 14.62 33.4722 13.164V12.884ZM37.0282 13.164C37.0282 14.564 37.3082 15.712 37.8682 16.608C38.4468 17.4853 39.3242 17.924 40.5002 17.924C41.6388 17.924 42.4882 17.4853 43.0482 16.608C43.6268 15.712 43.9162 14.564 43.9162 13.164V12.884C43.9162 11.5027 43.6268 10.364 43.0482 9.468C42.4882 8.572 41.6295 8.124 40.4722 8.124C39.3148 8.124 38.4468 8.572 37.8682 9.468C37.3082 10.364 37.0282 11.5027 37.0282 12.884V13.164ZM49.9254 0.367999H53.4814V20.5H49.9254V0.367999ZM78.2761 0.367999H83.0641V20.5H79.3961V14.228L79.7601 5.156L73.9641 20.5H71.3601L65.5921 5.156L65.9281 14.228V20.5H62.2321V0.367999H67.0481L72.6761 15.544L78.2761 0.367999ZM85.6714 12.884C85.6714 11.428 85.9514 10.1213 86.5114 8.964C87.0714 7.80667 87.874 6.90133 88.9194 6.248C89.9834 5.576 91.234 5.24 92.6714 5.24C94.1087 5.24 95.35 5.576 96.3954 6.248C97.4594 6.90133 98.2714 7.80667 98.8314 8.964C99.3914 10.1213 99.6714 11.428 99.6714 12.884V13.164C99.6714 14.62 99.3914 15.9267 98.8314 17.084C98.2714 18.2413 97.4687 19.1467 96.4234 19.8C95.378 20.4533 94.1367 20.78 92.6994 20.78C91.2434 20.78 89.9834 20.4533 88.9194 19.8C87.874 19.1467 87.0714 18.2413 86.5114 17.084C85.9514 15.9267 85.6714 14.62 85.6714 13.164V12.884ZM89.2274 13.164C89.2274 14.564 89.5074 15.712 90.0674 16.608C90.646 17.4853 91.5234 17.924 92.6994 17.924C93.838 17.924 94.6874 17.4853 95.2474 16.608C95.826 15.712 96.1154 14.564 96.1154 13.164V12.884C96.1154 11.5027 95.826 10.364 95.2474 9.468C94.6874 8.572 93.8287 8.124 92.6714 8.124C91.514 8.124 90.646 8.572 90.0674 9.468C89.5074 10.364 89.2274 11.5027 89.2274 12.884V13.164ZM108.929 20.5H105.709L100.501 5.52H104.197L107.305 15.992L110.385 5.52H114.053L108.929 20.5ZM121.661 20.78C120.186 20.78 118.898 20.4627 117.797 19.828C116.696 19.1933 115.846 18.3253 115.249 17.224C114.67 16.1227 114.381 14.8907 114.381 13.528C114.381 11.8293 114.67 10.3547 115.249 9.104C115.846 7.85333 116.658 6.90133 117.685 6.248C118.73 5.576 119.916 5.24 121.241 5.24C123.35 5.24 124.956 5.90267 126.057 7.228C127.158 8.55333 127.709 10.3453 127.709 12.604V14.116H117.993C118.086 15.236 118.478 16.1507 119.169 16.86C119.878 17.5693 120.784 17.924 121.885 17.924C123.397 17.924 124.638 17.3267 125.609 16.132L127.429 18.008C126.888 18.8107 126.132 19.4733 125.161 19.996C124.19 20.5187 123.024 20.78 121.661 20.78ZM121.241 8.124C120.345 8.124 119.626 8.42267 119.085 9.02C118.544 9.61733 118.198 10.476 118.049 11.596H124.209V11.316C124.172 10.364 123.91 9.59867 123.425 9.02C122.958 8.42267 122.23 8.124 121.241 8.124Z" fill="#022490"/>
</svg>
