<svg width="20" height="20" viewBox="0 0 20 20" fill="none" xmlns="http://www.w3.org/2000/svg">
<path d="M15.3537 8.35378L10.3537 13.3538C10.3073 13.4003 10.2521 13.4372 10.1914 13.4623C10.1307 13.4875 10.0657 13.5004 9.99997 13.5004C9.93427 13.5004 9.8692 13.4875 9.8085 13.4623C9.7478 13.4372 9.69266 13.4003 9.64622 13.3538L4.64622 8.35378C4.5524 8.25996 4.49969 8.13272 4.49969 8.00003C4.49969 7.86735 4.5524 7.7401 4.64622 7.64628C4.74004 7.55246 4.86729 7.49976 4.99997 7.49976C5.13265 7.49976 5.2599 7.55246 5.35372 7.64628L9.99997 12.2932L14.6462 7.64628C14.6927 7.59983 14.7478 7.56298 14.8085 7.53784C14.8692 7.5127 14.9343 7.49976 15 7.49976C15.0657 7.49976 15.1307 7.5127 15.1914 7.53784C15.2521 7.56298 15.3073 7.59983 15.3537 7.64628C15.4002 7.69274 15.437 7.74789 15.4622 7.80859C15.4873 7.86928 15.5003 7.93434 15.5003 8.00003C15.5003 8.06573 15.4873 8.13079 15.4622 8.19148C15.437 8.25218 15.4002 8.30733 15.3537 8.35378Z" fill="#868E96"/>
</svg>
