<svg width="19" height="18" viewBox="0 0 19 18" fill="none" xmlns="http://www.w3.org/2000/svg">
<path d="M14.7292 1.6875H5.72925C5.43088 1.6875 5.14473 1.80603 4.93375 2.017C4.72277 2.22798 4.60425 2.51413 4.60425 2.8125V4.5H3.47925C3.18088 4.5 2.89473 4.61853 2.68375 4.8295C2.47277 5.04048 2.35425 5.32663 2.35425 5.625V12.375C2.35425 12.6734 2.47277 12.9595 2.68375 13.1705C2.89473 13.3815 3.18088 13.5 3.47925 13.5H4.60425V15.1875C4.60425 15.4859 4.72277 15.772 4.93375 15.983C5.14473 16.194 5.43088 16.3125 5.72925 16.3125H14.7292C15.0276 16.3125 15.3138 16.194 15.5247 15.983C15.7357 15.772 15.8542 15.4859 15.8542 15.1875V2.8125C15.8542 2.51413 15.7357 2.22798 15.5247 2.017C15.3138 1.80603 15.0276 1.6875 14.7292 1.6875ZM5.72925 11.25C5.62233 11.25 5.51761 11.2196 5.42737 11.1623C5.33713 11.1049 5.2651 11.0231 5.21972 10.9262C5.17434 10.8294 5.15749 10.7217 5.17114 10.6157C5.1848 10.5096 5.2284 10.4097 5.29683 10.3275L6.40354 9L5.29683 7.6725C5.20135 7.55781 5.15534 7.4099 5.16892 7.26129C5.1825 7.11268 5.25456 6.97556 5.36925 6.88008C5.48393 6.7846 5.63185 6.73859 5.78046 6.75217C5.92907 6.76575 6.06619 6.83781 6.16167 6.9525L7.1355 8.12109L8.10933 6.9525C8.1566 6.89571 8.2146 6.84879 8.28001 6.81442C8.34542 6.78005 8.41695 6.7589 8.49054 6.75217C8.56412 6.74545 8.63831 6.75328 8.70886 6.77523C8.77942 6.79717 8.84496 6.8328 8.90175 6.88008C8.95853 6.92735 9.00545 6.98535 9.03982 7.05076C9.0742 7.11617 9.09535 7.18771 9.10208 7.26129C9.1088 7.33487 9.10097 7.40906 9.07902 7.47962C9.05707 7.55017 9.02145 7.61571 8.97417 7.6725L7.86745 9L8.97417 10.3275C9.06965 10.4422 9.11566 10.5901 9.10208 10.7387C9.08849 10.8873 9.01643 11.0244 8.90175 11.1199C8.78706 11.2154 8.63915 11.2614 8.49054 11.2478C8.34193 11.2342 8.2048 11.1622 8.10933 11.0475L7.1355 9.87891L6.16167 11.0475C6.10886 11.1109 6.04274 11.1619 5.96801 11.1969C5.89328 11.2319 5.81177 11.25 5.72925 11.25ZM9.66675 15.1875H5.72925V13.5H9.66675V15.1875ZM9.66675 4.5H5.72925V2.8125H9.66675V4.5ZM14.7292 15.1875H10.7917V13.5C11.0901 13.5 11.3763 13.3815 11.5872 13.1705C11.7982 12.9595 11.9167 12.6734 11.9167 12.375V11.8125H14.7292V15.1875ZM14.7292 10.6875H11.9167V7.3125H14.7292V10.6875ZM14.7292 6.1875H11.9167V5.625C11.9167 5.32663 11.7982 5.04048 11.5872 4.8295C11.3763 4.61853 11.0901 4.5 10.7917 4.5V2.8125H14.7292V6.1875Z" fill="white"/>
</svg>
