<svg width="49" height="49" viewBox="0 0 49 49" fill="none" xmlns="http://www.w3.org/2000/svg">
<path d="M27.0611 25.5611L12.0611 40.5611C11.7796 40.8426 11.3979 41.0007 10.9999 41.0007C10.6018 41.0007 10.2201 40.8426 9.93861 40.5611C9.65715 40.2796 9.49902 39.8979 9.49902 39.4999C9.49902 39.1018 9.65715 38.7201 9.93861 38.4386L23.8792 24.4999L9.93861 10.5611C9.65715 10.2796 9.49902 9.8979 9.49902 9.49986C9.49902 9.10181 9.65715 8.72007 9.93861 8.43861C10.2201 8.15715 10.6018 7.99902 10.9999 7.99902C11.3979 7.99902 11.7796 8.15715 12.0611 8.43861L27.0611 23.4386C27.2006 23.5779 27.3112 23.7434 27.3867 23.9254C27.4622 24.1075 27.501 24.3027 27.501 24.4999C27.501 24.697 27.4622 24.8922 27.3867 25.0743C27.3112 25.2564 27.2006 25.4218 27.0611 25.5611ZM42.0611 23.4386L27.0611 8.43861C26.7796 8.15715 26.3979 7.99902 25.9999 7.99902C25.6018 7.99902 25.2201 8.15715 24.9386 8.43861C24.6571 8.72007 24.499 9.10181 24.499 9.49986C24.499 9.8979 24.6571 10.2796 24.9386 10.5611L38.8792 24.4999L24.9386 38.4386C24.6571 38.7201 24.499 39.1018 24.499 39.4999C24.499 39.8979 24.6571 40.2796 24.9386 40.5611C25.2201 40.8426 25.6018 41.0007 25.9999 41.0007C26.3979 41.0007 26.7796 40.8426 27.0611 40.5611L42.0611 25.5611C42.2006 25.4218 42.3112 25.2564 42.3867 25.0743C42.4622 24.8922 42.501 24.697 42.501 24.4999C42.501 24.3027 42.4622 24.1075 42.3867 23.9254C42.3112 23.7434 42.2006 23.5779 42.0611 23.4386Z" fill="#378FE8"/>
</svg>
