<svg width="19" height="18" viewBox="0 0 19 18" fill="none" xmlns="http://www.w3.org/2000/svg">
<g clip-path="url(#clip0_75_25908)">
<path d="M9.5 11.25C10.7426 11.25 11.75 10.2426 11.75 9C11.75 7.75736 10.7426 6.75 9.5 6.75C8.25736 6.75 7.25 7.75736 7.25 9C7.25 10.2426 8.25736 11.25 9.5 11.25Z" stroke="#022490" stroke-linecap="round" stroke-linejoin="round"/>
<path d="M15.05 11.25C14.9502 11.4762 14.9204 11.7271 14.9645 11.9704C15.0086 12.2137 15.1246 12.4382 15.2975 12.615L15.3425 12.66C15.482 12.7993 15.5926 12.9647 15.6681 13.1468C15.7436 13.3289 15.7824 13.5241 15.7824 13.7213C15.7824 13.9184 15.7436 14.1136 15.6681 14.2957C15.5926 14.4778 15.482 14.6432 15.3425 14.7825C15.2032 14.922 15.0378 15.0326 14.8557 15.1081C14.6736 15.1836 14.4784 15.2224 14.2812 15.2224C14.0841 15.2224 13.8889 15.1836 13.7068 15.1081C13.5247 15.0326 13.3593 14.922 13.22 14.7825L13.175 14.7375C12.9982 14.5646 12.7737 14.4486 12.5304 14.4045C12.2871 14.3604 12.0362 14.3902 11.81 14.49C11.5882 14.5851 11.399 14.7429 11.2657 14.9442C11.1325 15.1454 11.061 15.3812 11.06 15.6225V15.75C11.06 16.1478 10.902 16.5294 10.6207 16.8107C10.3394 17.092 9.95782 17.25 9.56 17.25C9.16218 17.25 8.78064 17.092 8.49934 16.8107C8.21804 16.5294 8.06 16.1478 8.06 15.75V15.6825C8.05419 15.4343 7.97384 15.1935 7.82938 14.9915C7.68493 14.7896 7.48305 14.6357 7.25 14.55C7.02379 14.4502 6.77286 14.4204 6.52956 14.4645C6.28626 14.5086 6.06176 14.6246 5.885 14.7975L5.84 14.8425C5.70069 14.982 5.53526 15.0926 5.35316 15.1681C5.17106 15.2436 4.97587 15.2824 4.77875 15.2824C4.58163 15.2824 4.38644 15.2436 4.20434 15.1681C4.02224 15.0926 3.85681 14.982 3.7175 14.8425C3.57804 14.7032 3.4674 14.5378 3.39191 14.3557C3.31642 14.1736 3.27757 13.9784 3.27757 13.7812C3.27757 13.5841 3.31642 13.3889 3.39191 13.2068C3.4674 13.0247 3.57804 12.8593 3.7175 12.72L3.7625 12.675C3.9354 12.4982 4.05139 12.2737 4.0955 12.0304C4.13962 11.7871 4.10984 11.5362 4.01 11.31C3.91493 11.0882 3.75707 10.899 3.55585 10.7657C3.35463 10.6325 3.11884 10.561 2.8775 10.56H2.75C2.35218 10.56 1.97064 10.402 1.68934 10.1207C1.40804 9.83936 1.25 9.45782 1.25 9.06C1.25 8.66218 1.40804 8.28064 1.68934 7.99934C1.97064 7.71804 2.35218 7.56 2.75 7.56H2.8175C3.06575 7.55419 3.3065 7.47384 3.50847 7.32938C3.71045 7.18493 3.86429 6.98305 3.95 6.75C4.04984 6.52379 4.07962 6.27286 4.0355 6.02956C3.99139 5.78626 3.8754 5.56176 3.7025 5.385L3.6575 5.34C3.51804 5.20069 3.4074 5.03526 3.33191 4.85316C3.25642 4.67106 3.21757 4.47587 3.21757 4.27875C3.21757 4.08163 3.25642 3.88644 3.33191 3.70434C3.4074 3.52224 3.51804 3.35681 3.6575 3.2175C3.79681 3.07804 3.96224 2.9674 4.14434 2.89191C4.32644 2.81642 4.52163 2.77757 4.71875 2.77757C4.91587 2.77757 5.11106 2.81642 5.29316 2.89191C5.47526 2.9674 5.64069 3.07804 5.78 3.2175L5.825 3.2625C6.00176 3.4354 6.22626 3.55139 6.46956 3.5955C6.71285 3.63962 6.96379 3.60984 7.19 3.51H7.25C7.47183 3.41493 7.66101 3.25707 7.79427 3.05585C7.92753 2.85463 7.99904 2.61884 8 2.3775V2.25C8 1.85218 8.15804 1.47064 8.43934 1.18934C8.72064 0.908035 9.10218 0.75 9.5 0.75C9.89782 0.75 10.2794 0.908035 10.5607 1.18934C10.842 1.47064 11 1.85218 11 2.25V2.3175C11.001 2.55884 11.0725 2.79463 11.2057 2.99585C11.339 3.19707 11.5282 3.35493 11.75 3.45C11.9762 3.54984 12.2271 3.57962 12.4704 3.5355C12.7137 3.49139 12.9382 3.3754 13.115 3.2025L13.16 3.1575C13.2993 3.01804 13.4647 2.9074 13.6468 2.83191C13.8289 2.75642 14.0241 2.71757 14.2213 2.71757C14.4184 2.71757 14.6136 2.75642 14.7957 2.83191C14.9778 2.9074 15.1432 3.01804 15.2825 3.1575C15.422 3.29681 15.5326 3.46224 15.6081 3.64434C15.6836 3.82644 15.7224 4.02163 15.7224 4.21875C15.7224 4.41587 15.6836 4.61106 15.6081 4.79316C15.5326 4.97526 15.422 5.14069 15.2825 5.28L15.2375 5.325C15.0646 5.50176 14.9486 5.72626 14.9045 5.96956C14.8604 6.21285 14.8902 6.46379 14.99 6.69V6.75C15.0851 6.97183 15.2429 7.16101 15.4442 7.29427C15.6454 7.42753 15.8812 7.49904 16.1225 7.5H16.25C16.6478 7.5 17.0294 7.65804 17.3107 7.93934C17.592 8.22064 17.75 8.60218 17.75 9C17.75 9.39782 17.592 9.77936 17.3107 10.0607C17.0294 10.342 16.6478 10.5 16.25 10.5H16.1825C15.9412 10.501 15.7054 10.5725 15.5042 10.7057C15.3029 10.839 15.1451 11.0282 15.05 11.25Z" stroke="#022490" stroke-linecap="round" stroke-linejoin="round"/>
</g>
<defs>
<clipPath id="clip0_75_25908">
<rect width="18" height="18" fill="white" transform="translate(0.5)"/>
</clipPath>
</defs>
</svg>
