<svg width="19" height="18" viewBox="0 0 19 18" fill="none" xmlns="http://www.w3.org/2000/svg">
<path d="M17.375 7.17188C17.375 12.0938 10.0773 16.0777 9.76648 16.2422C9.68457 16.2863 9.59301 16.3093 9.5 16.3093C9.40699 16.3093 9.31543 16.2863 9.23352 16.2422C8.92273 16.0777 1.625 12.0938 1.625 7.17188C1.6263 6.0161 2.08601 4.90803 2.90327 4.09077C3.72053 3.27351 4.8286 2.8138 5.98438 2.8125C7.43633 2.8125 8.70758 3.43687 9.5 4.49227C10.2924 3.43687 11.5637 2.8125 13.0156 2.8125C14.1714 2.8138 15.2795 3.27351 16.0967 4.09077C16.914 4.90803 17.3737 6.0161 17.375 7.17188Z" fill="#022490"/>
</svg>
