<svg width="220" height="36" viewBox="0 0 220 36" fill="none" xmlns="http://www.w3.org/2000/svg">
<path d="M28.568 23.672C28.28 27.224 26.952 30.088 24.584 32.264C22.248 34.408 19.032 35.48 14.936 35.48C12.088 35.48 9.608 34.808 7.496 33.464C5.384 32.12 3.752 30.216 2.6 27.752C1.48 25.288 0.92 22.392 0.92 19.064V16.424C0.92 13.096 1.496 10.2 2.648 7.736C3.8 5.272 5.448 3.368 7.592 2.024C9.736 0.679998 12.248 0.00799847 15.128 0.00799847C19.192 0.00799847 22.36 1.096 24.632 3.272C26.904 5.448 28.232 8.36 28.616 12.008H22.28C22.056 9.704 21.4 7.992 20.312 6.872C19.224 5.72 17.496 5.144 15.128 5.144C12.536 5.144 10.584 6.104 9.272 8.024C7.96 9.912 7.304 12.696 7.304 16.376V19.064C7.304 26.584 9.848 30.344 14.936 30.344C17.336 30.344 19.08 29.8 20.168 28.712C21.288 27.624 21.976 25.944 22.232 23.672H28.568ZM31.3295 21.944C31.3295 19.448 31.8095 17.208 32.7695 15.224C33.7295 13.24 35.1055 11.688 36.8975 10.568C38.7215 9.416 40.8655 8.84 43.3295 8.84C45.7935 8.84 47.9215 9.416 49.7135 10.568C51.5375 11.688 52.9295 13.24 53.8895 15.224C54.8495 17.208 55.3295 19.448 55.3295 21.944V22.424C55.3295 24.92 54.8495 27.16 53.8895 29.144C52.9295 31.128 51.5535 32.68 49.7615 33.8C47.9695 34.92 45.8415 35.48 43.3775 35.48C40.8815 35.48 38.7215 34.92 36.8975 33.8C35.1055 32.68 33.7295 31.128 32.7695 29.144C31.8095 27.16 31.3295 24.92 31.3295 22.424V21.944ZM37.4255 22.424C37.4255 24.824 37.9055 26.792 38.8655 28.328C39.8575 29.832 41.3615 30.584 43.3775 30.584C45.3295 30.584 46.7855 29.832 47.7455 28.328C48.7375 26.792 49.2335 24.824 49.2335 22.424V21.944C49.2335 19.576 48.7375 17.624 47.7455 16.088C46.7855 14.552 45.3135 13.784 43.3295 13.784C41.3455 13.784 39.8575 14.552 38.8655 16.088C37.9055 17.624 37.4255 19.576 37.4255 21.944V22.424ZM58.0951 21.944C58.0951 19.448 58.5751 17.208 59.5351 15.224C60.4951 13.24 61.8711 11.688 63.6631 10.568C65.4871 9.416 67.6311 8.84 70.0951 8.84C72.5591 8.84 74.6871 9.416 76.4791 10.568C78.3031 11.688 79.6951 13.24 80.6551 15.224C81.6151 17.208 82.0951 19.448 82.0951 21.944V22.424C82.0951 24.92 81.6151 27.16 80.6551 29.144C79.6951 31.128 78.3191 32.68 76.5271 33.8C74.7351 34.92 72.6071 35.48 70.1431 35.48C67.6471 35.48 65.4871 34.92 63.6631 33.8C61.8711 32.68 60.4951 31.128 59.5351 29.144C58.5751 27.16 58.0951 24.92 58.0951 22.424V21.944ZM64.1911 22.424C64.1911 24.824 64.6711 26.792 65.6311 28.328C66.6231 29.832 68.1271 30.584 70.1431 30.584C72.0951 30.584 73.5511 29.832 74.5111 28.328C75.5031 26.792 75.9991 24.824 75.9991 22.424V21.944C75.9991 19.576 75.5031 17.624 74.5111 16.088C73.5511 14.552 72.0791 13.784 70.0951 13.784C68.1111 13.784 66.6231 14.552 65.6311 16.088C64.6711 17.624 64.1911 19.576 64.1911 21.944V22.424ZM86.3008 0.487998H92.3968V35H86.3008V0.487998ZM134.902 0.487998H143.11V35H136.822V24.248L137.446 8.696L127.51 35H123.046L113.158 8.696L113.734 24.248V35H107.398V0.487998H115.654L125.302 26.504L134.902 0.487998ZM147.58 21.944C147.58 19.448 148.06 17.208 149.02 15.224C149.98 13.24 151.356 11.688 153.148 10.568C154.972 9.416 157.116 8.84 159.58 8.84C162.044 8.84 164.172 9.416 165.964 10.568C167.788 11.688 169.18 13.24 170.14 15.224C171.1 17.208 171.58 19.448 171.58 21.944V22.424C171.58 24.92 171.1 27.16 170.14 29.144C169.18 31.128 167.804 32.68 166.012 33.8C164.22 34.92 162.092 35.48 159.628 35.48C157.132 35.48 154.972 34.92 153.148 33.8C151.356 32.68 149.98 31.128 149.02 29.144C148.06 27.16 147.58 24.92 147.58 22.424V21.944ZM153.676 22.424C153.676 24.824 154.156 26.792 155.116 28.328C156.108 29.832 157.612 30.584 159.628 30.584C161.58 30.584 163.036 29.832 163.996 28.328C164.988 26.792 165.484 24.824 165.484 22.424V21.944C165.484 19.576 164.988 17.624 163.996 16.088C163.036 14.552 161.564 13.784 159.58 13.784C157.596 13.784 156.108 14.552 155.116 16.088C154.156 17.624 153.676 19.576 153.676 21.944V22.424ZM187.449 35H181.929L173.001 9.32H179.337L184.665 27.272L189.945 9.32H196.233L187.449 35ZM209.276 35.48C206.748 35.48 204.54 34.936 202.652 33.848C200.764 32.76 199.308 31.272 198.284 29.384C197.292 27.496 196.796 25.384 196.796 23.048C196.796 20.136 197.292 17.608 198.284 15.464C199.308 13.32 200.7 11.688 202.46 10.568C204.252 9.416 206.284 8.84 208.556 8.84C212.172 8.84 214.924 9.976 216.812 12.248C218.7 14.52 219.644 17.592 219.644 21.464V24.056H202.988C203.148 25.976 203.82 27.544 205.004 28.76C206.22 29.976 207.772 30.584 209.66 30.584C212.252 30.584 214.38 29.56 216.044 27.512L219.164 30.728C218.236 32.104 216.94 33.24 215.276 34.136C213.612 35.032 211.612 35.48 209.276 35.48ZM208.556 13.784C207.02 13.784 205.788 14.296 204.86 15.32C203.932 16.344 203.34 17.816 203.084 19.736H213.644V19.256C213.58 17.624 213.132 16.312 212.3 15.32C211.5 14.296 210.252 13.784 208.556 13.784Z" fill="#022490"/>
</svg>
